<?xml version="1.0" encoding="UTF-8"?>
<svg id="Layer_1" data-name="Layer 1" xmlns="http://www.w3.org/2000/svg" xmlns:xlink="http://www.w3.org/1999/xlink" viewBox="0 0 320 500">
  <defs>
    <style>
      .cls-1 {
        stroke: #454da1;
      }

      .cls-1, .cls-2, .cls-3 {
        fill: none;
        stroke-miterlimit: 10;
      }

      .cls-4 {
        fill: url(#linear-gradient);
      }

      .cls-4, .cls-5 {
        stroke-width: 0px;
      }

      .cls-2 {
        stroke: #f24146;
      }

      .cls-3 {
        stroke: #caa51d;
      }

      .cls-5 {
        fill: url(#linear-gradient-2);
      }
    </style>
    <linearGradient id="linear-gradient" x1="22.15" y1="170.67" x2="111.99" y2="73.62" gradientUnits="userSpaceOnUse">
      <stop offset=".06" stop-color="#ffb937"/>
      <stop offset=".51" stop-color="#f6d86b"/>
      <stop offset="1" stop-color="#fba70c"/>
    </linearGradient>
    <linearGradient id="linear-gradient-2" x1="18.71" y1="374.72" x2="100.45" y2="415.83" gradientTransform="translate(0 401.53) scale(1 -.9)" gradientUnits="userSpaceOnUse">
      <stop offset="0" stop-color="#33f"/>
      <stop offset=".37" stop-color="#36f"/>
      <stop offset=".94" stop-color="#3345e9"/>
    </linearGradient>
  </defs>
  <g>
    <path class="cls-1" d="m31.91,77.21c0,1.9-.05,3.91-.19,6.03-.19,2.8-.51,5.4-.89,7.79"/>
    <path class="cls-2" d="m35.14,77.21c0,1.79-.05,3.68-.17,5.65-.3,4.78-.76,9.28-.83,9.76"/>
    <path class="cls-3" d="m38.48,77.25c-.45,1.82-.83,3.82-1.09,5.99-.3,2.53-.27,6.61-.23,8.75"/>
    <path class="cls-4" d="m24.95,97.49c.73-2.29,2.57-6.47,7.5-9.54,3.6-2.24,7.44-2.94,9.88-3.17,11.89-.04,21.37.03,27.84.03,13.09,0,26.23-.24,39-.41.55,0,.84.1,1.25.26.14.06.67.37.69.39.29.29.54.35.45,1.97l-1.15,8.48c-.35,2.11-2.84,3.71-5.82,3.75l-61.99.77c-.37,0-.68.21-.71.48-1.7,7.34-2.81,14.67-3.83,22.07-1.09,7.94-2,16.12-2.51,23.95,0,.04,0,.24.18.41.21.19.5.18.54.18,19.48.1,38.97.94,58.44.29,6.34-.21,5.46,2.18,5.78,4.92l.02,2.29c-.06,1.39-.29,2.61-.63,3.94-.06.24-.14.49-.25.71-.02.04-.04.08-.06.12-.44.88-1.25,1.61-2.23,2.11-.15.08-.31.16-.47.25-.96.51-2.08.8-3.23.81l-58,.27c-10.35-.75-18.3-7.68-17.59-16.15,1.16-13.81,3.14-27.99,5.47-42.37.34-2.29.74-4.61,1.45-6.81Z"/>
    <path class="cls-5" d="m47.61,77.48c1.12-8.9,1.72-17.45,3.15-26.05.92-5.52,5.7-9.55,11.27-9.52,17.21.09,35,.19,51.95.27,3.65,0,5.87-2.88,6.06-6.05l.02-2.52c0-.32,0-.64-.03-.96-.12-1.64-.31-3.25-.69-4.88-.27-1.13-.81-2.09-1.41-2.71-.72-.75-1.82-1.11-2.91-1.13H45.65c-5.75,0-10.59,4.3-11.3,10.03l-5.34,43.51"/>
  </g>
  <text/>
</svg>